#N canvas 232 148 1044 429 12;
#X msg 116 16 open sound.wav;
#X obj 94 122 dac~;
#X obj 94 72 readsf~;
#X msg 18 38 0;
#X msg 47 16 1;
#X obj 134 373 dac~;
#X obj 134 323 readsf~;
#X msg 58 289 0;
#X msg 87 267 1;
#X obj 151 232 openpanel;
#X msg 151 272 open \$1;
#X obj 151 170 bng 15 250 50 0 empty empty empty 17 7 0 10 -262144
-1 -1;
#X msg 151 43 open sound2.wav;
#X obj 457 63 soundfiler;
#X floatatom 457 94 5 0 0 0 - - -;
#X obj 409 142 expr 44100/$f1;
#X obj 390 238 phasor~;
#X obj 657 261 *~;
#X obj 658 298 tabread4~ soundData;
#X obj 658 342 dac~;
#X msg 337 95 0;
#N canvas 0 50 450 250 (subpatch) 0;
#X array soundData 8.87398e+006 float 2;
#X coords 0 1 8.87398e+006 -1 200 140 1;
#X restore 733 64 graph;
#X floatatom 423 212 5 0 0 0 - - -;
#X obj 426 178 hsl 128 15 0 127 0 0 empty empty empty -2 -8 0 10 -262144
-1 -1 100 1;
#X msg 457 30 read -resize sound2.wav soundData;
#X connect 0 0 2 0;
#X connect 2 0 1 0;
#X connect 2 0 1 1;
#X connect 3 0 2 0;
#X connect 4 0 2 0;
#X connect 6 0 5 0;
#X connect 6 0 5 1;
#X connect 7 0 6 0;
#X connect 8 0 6 0;
#X connect 9 0 10 0;
#X connect 10 0 6 0;
#X connect 11 0 9 0;
#X connect 12 0 2 0;
#X connect 13 0 14 0;
#X connect 14 0 15 0;
#X connect 14 0 17 1;
#X connect 15 0 16 0;
#X connect 16 0 17 0;
#X connect 17 0 18 0;
#X connect 18 0 19 0;
#X connect 18 0 19 1;
#X connect 20 0 16 0;
#X connect 22 0 16 0;
#X connect 23 0 22 0;
#X connect 24 0 13 0;
